<?xml version="1.0" encoding="utf-8"?>
<!-- Generator: Adobe Illustrator 24.2.1, SVG Export Plug-In . SVG Version: 6.00 Build 0)  -->
<svg version="1.1" id="Layer_1" xmlns="http://www.w3.org/2000/svg" xmlns:xlink="http://www.w3.org/1999/xlink" x="0px" y="0px"
	 viewBox="0 0 1522.21 841.89" style="enable-background:new 0 0 1522.21 841.89;" xml:space="preserve">
<style type="text/css">
	.st0{fill:#0F5B0A;}
	.st1{fill:#FFFFFF;}
</style>
<g>
	<g>
		<path class="st0" d="M351.23,563.55c5.51-2.06,10.32-4.81,14.43-8.26l23.19,23.44c-5.59,5.76-13.28,10.48-23.07,14.18
			c-9.79,3.7-19.53,5.55-29.23,5.55c-12.99,0-24.75-2.88-35.28-8.63c-10.53-5.75-18.83-13.73-24.92-23.93
			c-6.09-10.19-9.13-21.71-9.13-34.54c0-12.66,2.96-24.05,8.88-34.17c5.92-10.11,14.02-18.01,24.3-23.68
			c10.28-5.67,21.75-8.51,34.41-8.51c13.48,0,25.08,3.08,34.78,9.25c9.7,6.17,17.18,15.05,22.45,26.64
			c5.26,11.6,7.89,25.37,7.89,41.32H306.7c1.64,7.4,4.97,13.32,9.99,17.76c5.01,4.44,11.14,6.66,18.38,6.66
			C340.33,566.63,345.72,565.6,351.23,563.55z M317.43,502.74c-4.85,3.95-8.26,9.29-10.24,16.03h52.79
			c-1.48-6.74-4.4-12.09-8.76-16.03c-4.36-3.95-9.83-5.92-16.41-5.92C328.08,496.81,322.28,498.79,317.43,502.74z"/>
		<path class="st0" d="M444.85,589.32c-10.85-6.08-19.49-14.27-25.9-24.55c-6.41-10.28-9.62-21.34-9.62-33.18
			c0-11.84,3.25-22.86,9.74-33.06c6.49-10.19,15.17-18.34,26.03-24.42c10.85-6.08,22.61-9.13,35.28-9.13
			c10.52,0,20.14,2.02,28.86,6.04c8.72,4.03,16.28,9.58,22.7,16.65l-27.63,22.94c-2.96-3.12-6.66-5.71-11.1-7.77
			c-4.44-2.05-8.8-3.08-13.07-3.08c-5.43,0-10.49,1.44-15.17,4.32c-4.69,2.88-8.43,6.75-11.22,11.6c-2.8,4.85-4.19,10.08-4.19,15.66
			c0,5.76,1.39,11.1,4.19,16.03c2.79,4.93,6.57,8.88,11.35,11.84c4.77,2.96,9.87,4.44,15.29,4.44c4.44,0,8.92-1.07,13.44-3.21
			c4.52-2.13,8.26-4.85,11.22-8.14l27.63,22.7c-6.58,7.4-14.31,13.16-23.19,17.27c-8.88,4.11-18.75,6.17-29.6,6.17
			C467.38,598.45,455.7,595.41,444.85,589.32z"/>
		<path class="st0" d="M576.33,589.45c-10.85-6-19.49-14.14-25.9-24.42c-6.41-10.28-9.62-21.42-9.62-33.43c0-12,3.21-23.1,9.62-33.3
			c6.41-10.2,15.05-18.29,25.9-24.3c10.86-6,22.7-9,35.52-9s24.67,3,35.52,9c10.85,6.01,19.45,14.1,25.78,24.3
			c6.33,10.2,9.5,21.3,9.5,33.3c0,12.01-3.17,23.15-9.5,33.43c-6.33,10.28-14.92,18.42-25.78,24.42c-10.86,6.01-22.7,9-35.52,9
			S587.19,595.45,576.33,589.45z M627.4,559.35c4.77-2.88,8.55-6.78,11.35-11.72c2.79-4.93,4.19-10.28,4.19-16.03
			c0-5.76-1.4-11.06-4.19-15.91c-2.8-4.85-6.58-8.72-11.35-11.6c-4.77-2.87-9.95-4.32-15.54-4.32c-5.59,0-10.77,1.44-15.54,4.32
			c-4.77,2.88-8.55,6.75-11.35,11.6c-2.8,4.85-4.19,10.16-4.19,15.91c0,5.76,1.39,11.1,4.19,16.03c2.8,4.93,6.58,8.84,11.35,11.72
			c4.77,2.88,9.95,4.32,15.54,4.32C617.44,563.67,622.62,562.23,627.4,559.35z"/>
		<path class="st0" d="M749.01,467.95h26.4v33.3h-26.4v94.24h-39.96v-94.24h-17.02v-33.3h17.02v-9.13c0-12,3.78-21.83,11.35-29.48
			c7.56-7.65,17.35-11.47,29.36-11.47c5.43,0,10.98,1.11,16.65,3.33c5.68,2.22,10.4,5.14,14.19,8.76l-8.14,24.92
			c-1.32-1.32-3.08-2.34-5.3-3.08c-2.22-0.74-4.48-1.11-6.79-1.11c-3.29,0-6.01,1.28-8.14,3.82c-2.14,2.55-3.21,5.88-3.21,9.99
			V467.95z"/>
		<path class="st0" d="M796.38,467.95h41.94v127.54h-41.94V467.95z"/>
		<path class="st0" d="M981.4,473.5c8.88,5.67,15.83,13.57,20.85,23.68c5.01,10.11,7.52,21.59,7.52,34.41
			c0,12.83-2.51,24.34-7.52,34.54c-5.02,10.2-11.97,18.13-20.85,23.81c-8.88,5.67-18.91,8.51-30.1,8.51
			c-8.55,0-16.41-1.69-23.56-5.06c-7.16-3.37-13.28-8.18-18.38-14.43v16.53h-41.69V423.05h41.69v61.43
			c5.1-6.25,11.22-11.06,18.38-14.43c7.15-3.37,15.01-5.06,23.56-5.06C962.48,464.99,972.52,467.83,981.4,473.5z M960.8,554.66
			c5.84-6,8.76-13.69,8.76-23.07c0-9.21-2.92-16.81-8.76-22.82c-5.84-6-13.28-9-22.33-9c-8.55,0-15.54,3-20.97,9
			c-5.43,6.01-8.14,13.61-8.14,22.82c0,9.37,2.71,17.06,8.14,23.07c5.43,6.01,12.42,9,20.97,9
			C947.52,563.67,954.96,560.67,960.8,554.66z"/>
		<path class="st0" d="M1089.2,471.9c7.24-4.6,15.38-6.91,24.42-6.91v34.78c-12.83,0-22.98,3.45-30.47,10.36
			c-7.49,6.91-11.22,16.2-11.22,27.88v57.48h-41.94V467.95h41.94v23.19C1076.21,482.92,1081.96,476.51,1089.2,471.9z"/>
		<path class="st0" d="M1206.26,563.55c5.51-2.06,10.32-4.81,14.43-8.26l23.19,23.44c-5.59,5.76-13.28,10.48-23.07,14.18
			c-9.79,3.7-19.53,5.55-29.23,5.55c-12.99,0-24.75-2.88-35.28-8.63c-10.53-5.75-18.83-13.73-24.92-23.93
			c-6.09-10.19-9.13-21.71-9.13-34.54c0-12.66,2.96-24.05,8.88-34.17c5.92-10.11,14.02-18.01,24.3-23.68
			c10.28-5.67,21.75-8.51,34.41-8.51c13.48,0,25.08,3.08,34.78,9.25c9.7,6.17,17.18,15.05,22.45,26.64
			c5.26,11.6,7.89,25.37,7.89,41.32h-93.25c1.64,7.4,4.97,13.32,9.99,17.76c5.01,4.44,11.14,6.66,18.38,6.66
			C1195.36,566.63,1200.74,565.6,1206.26,563.55z M1172.46,502.74c-4.85,3.95-8.26,9.29-10.24,16.03h52.79
			c-1.48-6.74-4.4-12.09-8.76-16.03c-4.36-3.95-9.83-5.92-16.4-5.92C1183.1,496.81,1177.31,498.79,1172.46,502.74z"/>
	</g>
	<g>
		<path class="st0" d="M296.67,642.75c3.85,0,7.37,0.77,10.56,2.31c3.19,1.54,5.7,3.7,7.55,6.47c1.84,2.78,2.76,5.9,2.76,9.36
			s-0.92,6.58-2.76,9.36c-1.84,2.78-4.36,4.94-7.55,6.47c-3.19,1.54-6.71,2.31-10.56,2.31H280.1v20.37h-6.43v-56.65H296.67z
			 M306.77,669.71c2.83-2.14,4.25-5.08,4.25-8.82c0-3.74-1.42-6.68-4.25-8.82c-2.83-2.14-6.58-3.22-11.26-3.22H280.1v24.08h15.42
			C300.19,672.93,303.94,671.86,306.77,669.71z"/>
		<path class="st0" d="M369.07,699.4l-5.69-12.86H331.8l-5.69,12.86h-7.01l24.99-56.65h7.01l24.99,56.65H369.07z M334.44,680.43
			h26.31l-13.11-29.77L334.44,680.43z"/>
		<path class="st0" d="M409.4,642.75c3.85,0,7.37,0.77,10.56,2.31c3.19,1.54,5.7,3.7,7.55,6.47c1.84,2.78,2.76,5.9,2.76,9.36
			s-0.92,6.58-2.76,9.36c-1.84,2.78-4.36,4.94-7.55,6.47c-3.19,1.54-6.71,2.31-10.56,2.31h-16.58v20.37h-6.43v-56.65H409.4z
			 M419.5,669.71c2.83-2.14,4.25-5.08,4.25-8.82c0-3.74-1.42-6.68-4.25-8.82c-2.83-2.14-6.58-3.22-11.26-3.22h-15.42v24.08h15.42
			C412.92,672.93,416.67,671.86,419.5,669.71z"/>
		<path class="st0" d="M481.64,648.85H447.5v18.64h30.76v6.1H447.5v19.71h34.14v6.1h-40.65v-56.65h40.65V648.85z"/>
		<path class="st0" d="M534.12,669.47c-1.51,2.58-3.62,4.7-6.31,6.35c-2.69,1.65-5.72,2.67-9.07,3.05l14.43,20.53h-7.34
			l-14.35-20.37h-12.54v20.37h-6.43v-56.65h23.01c3.85,0,7.37,0.77,10.56,2.31c3.19,1.54,5.7,3.7,7.55,6.47
			c1.84,2.78,2.76,5.9,2.76,9.36C536.39,664.02,535.64,666.88,534.12,669.47z M498.95,672.93h15.42c4.67,0,8.42-1.07,11.26-3.22
			c2.83-2.14,4.25-5.08,4.25-8.82c0-3.74-1.42-6.68-4.25-8.82c-2.83-2.14-6.58-3.22-11.26-3.22h-15.42V672.93z"/>
		<path class="st0" d="M617.21,699.4l-5.69-12.86h-31.58l-5.69,12.86h-7.01l24.99-56.65h7.01l24.99,56.65H617.21z M582.57,680.43
			h26.31l-13.11-29.77L582.57,680.43z"/>
		<path class="st0" d="M634.52,642.75h6.43l35.13,46.1v-46.1h6.43v56.65h-6.43l-35.13-46.1v46.1h-6.43V642.75z"/>
		<path class="st0" d="M714.51,642.75c5.94,0,11.23,1.21,15.88,3.63c4.64,2.42,8.27,5.77,10.88,10.06s3.92,9.15,3.92,14.6
			c0,5.44-1.31,10.32-3.92,14.64c-2.61,4.32-6.24,7.68-10.88,10.1c-4.65,2.42-9.94,3.63-15.88,3.63h-19.13v-56.65H714.51z
			 M727.01,690.66c3.66-1.92,6.51-4.59,8.58-8c2.06-3.41,3.09-7.28,3.09-11.63c0-4.34-1.03-8.21-3.09-11.59s-4.92-6.03-8.58-7.96
			c-3.66-1.92-7.82-2.89-12.49-2.89h-12.7v44.94h12.7C719.18,693.55,723.35,692.58,727.01,690.66z"/>
		<path class="st0" d="M801.76,642.75c3.85,0,7.37,0.77,10.56,2.31c3.19,1.54,5.7,3.7,7.55,6.47c1.84,2.78,2.76,5.9,2.76,9.36
			s-0.92,6.58-2.76,9.36c-1.84,2.78-4.36,4.94-7.55,6.47c-3.19,1.54-6.71,2.31-10.56,2.31h-16.58v20.37h-6.43v-56.65H801.76z
			 M811.86,669.71c2.83-2.14,4.25-5.08,4.25-8.82c0-3.74-1.42-6.68-4.25-8.82c-2.83-2.14-6.58-3.22-11.26-3.22h-15.42v24.08h15.42
			C805.28,672.93,809.03,671.86,811.86,669.71z"/>
		<path class="st0" d="M874.16,699.4l-5.69-12.86h-31.58l-5.69,12.86h-7.01l24.99-56.65h7.01l24.99,56.65H874.16z M839.53,680.43
			h26.31l-13.11-29.77L839.53,680.43z"/>
		<path class="st0" d="M899.6,696.39c-4.48-2.67-8.04-6.25-10.68-10.76c-2.64-4.51-3.96-9.37-3.96-14.6
			c0-5.22,1.32-10.07,3.96-14.55c2.64-4.48,6.2-8.05,10.68-10.72c4.48-2.67,9.28-4,14.39-4c3.85,0,7.53,0.76,11.05,2.27
			c3.52,1.51,6.62,3.64,9.32,6.39l-4.37,4.45c-2.09-2.25-4.52-4.01-7.3-5.28c-2.78-1.26-5.68-1.9-8.7-1.9
			c-4.01,0-7.74,1.06-11.17,3.17c-3.44,2.12-6.18,4.98-8.25,8.58c-2.06,3.6-3.09,7.46-3.09,11.59c0,4.18,1.03,8.05,3.09,11.63
			c2.06,3.57,4.81,6.43,8.25,8.58c3.44,2.14,7.16,3.22,11.17,3.22c3.02,0,5.92-0.63,8.7-1.9c2.78-1.26,5.21-3.02,7.3-5.28l4.37,4.45
			c-2.69,2.69-5.8,4.81-9.32,6.35c-3.52,1.54-7.2,2.31-11.05,2.31C908.88,700.39,904.08,699.06,899.6,696.39z"/>
		<path class="st0" d="M944.75,642.75h6.43v31.34l28.7-31.34h8.49l-23.83,25.89l25.4,30.76h-8.33l-21.52-26.39l-8.91,9.4v16.99
			h-6.43V642.75z"/>
		<path class="st0" d="M1047.58,699.4l-5.69-12.86h-31.58l-5.69,12.86h-7.01l24.99-56.65h7.01l24.99,56.65H1047.58z M1012.95,680.43
			h26.31l-13.11-29.77L1012.95,680.43z"/>
		<path class="st0" d="M1086.75,669.55h22.68v22.18c-2.64,2.64-5.98,4.74-10.02,6.31c-4.04,1.57-8.04,2.35-12,2.35
			c-5.11,0-9.91-1.33-14.39-4c-4.48-2.67-8.04-6.25-10.68-10.76c-2.64-4.51-3.96-9.37-3.96-14.6c0-5.22,1.32-10.07,3.96-14.55
			c2.64-4.48,6.2-8.05,10.68-10.72c4.48-2.67,9.28-4,14.39-4c3.96,0,7.97,0.78,12.04,2.35c4.07,1.57,7.39,3.67,9.98,6.31l-4.37,4.45
			c-2.03-2.14-4.7-3.88-8-5.19c-3.3-1.32-6.51-1.98-9.65-1.98c-4.01,0-7.74,1.06-11.17,3.17c-3.44,2.12-6.18,4.98-8.25,8.58
			c-2.06,3.6-3.09,7.46-3.09,11.59c0,4.18,1.03,8.05,3.09,11.63c2.06,3.57,4.81,6.43,8.25,8.58c3.44,2.14,7.16,3.22,11.17,3.22
			c2.64,0,5.37-0.48,8.21-1.44c2.83-0.96,5.29-2.24,7.38-3.83v-13.52h-16.25V669.55z"/>
		<path class="st0" d="M1120.81,642.75h6.43v56.65h-6.43V642.75z"/>
		<path class="st0" d="M1140.11,642.75h6.43l35.13,46.1v-46.1h6.43v56.65h-6.43l-35.13-46.1v46.1h-6.43V642.75z"/>
		<path class="st0" d="M1227.35,669.55h22.68v22.18c-2.64,2.64-5.98,4.74-10.02,6.31c-4.04,1.57-8.04,2.35-12,2.35
			c-5.11,0-9.91-1.33-14.39-4c-4.48-2.67-8.04-6.25-10.68-10.76c-2.64-4.51-3.96-9.37-3.96-14.6c0-5.22,1.32-10.07,3.96-14.55
			c2.64-4.48,6.2-8.05,10.68-10.72c4.48-2.67,9.28-4,14.39-4c3.96,0,7.97,0.78,12.04,2.35c4.07,1.57,7.39,3.67,9.98,6.31l-4.37,4.45
			c-2.03-2.14-4.7-3.88-8-5.19c-3.3-1.32-6.51-1.98-9.65-1.98c-4.01,0-7.74,1.06-11.17,3.17c-3.44,2.12-6.18,4.98-8.25,8.58
			c-2.06,3.6-3.09,7.46-3.09,11.59c0,4.18,1.03,8.05,3.09,11.63c2.06,3.57,4.81,6.43,8.25,8.58c3.44,2.14,7.16,3.22,11.17,3.22
			c2.64,0,5.37-0.48,8.21-1.44c2.83-0.96,5.29-2.24,7.38-3.83v-13.52h-16.25V669.55z"/>
	</g>
	<path class="st0" d="M791.65,410.31c-18.35-4.05-35.95-10.16-51.15-21.62c-32.29-24.35-37-66.23-22.94-102.53
		c9.37-24.18,27.21-47.12,48.64-61.86c23.6-16.22,55.18-44.48,62.1-82.8c0,0,114.33,137.02,80.29,212.08
		C874.58,428.61,791.72,410.33,791.65,410.31z"/>
	<path class="st1" d="M804.76,412.28c-3.8,0-9.38-4.02-12.4-5.88c-25.23-15.49-38.25-47.53-31.87-76.35
		c3.09-13.97,11.93-25.58,22.66-34.71c19.7-16.75,45.43-25.34,70.42-30.32c0,0-63.92,23.75-78.17,69.53c0,0,53.55,2.59,66.94-11.66
		c0,0-10.59,27.64-40.71,29.8l-27.96,1.73c0,0,8.21,47.07,42.75,57.87C816.42,412.28,804.77,412.28,804.76,412.28z"/>
</g>
</svg>
